<?xml version="1.0" encoding="UTF-8"?>
<!DOCTYPE svg PUBLIC "-//W3C//DTD SVG 1.1//EN" "http://www.w3.org/Graphics/SVG/1.1/DTD/svg11.dtd">
<svg xmlns="http://www.w3.org/2000/svg" version="1.1" width="48px" height="48px" style="shape-rendering:geometricPrecision; text-rendering:geometricPrecision; image-rendering:optimizeQuality; fill-rule:evenodd; clip-rule:evenodd" xmlns:xlink="http://www.w3.org/1999/xlink">
<g><path style="opacity:0.844" fill="#62a7fc" d="M 47.5,13.5 C 47.5,15.1667 47.5,16.8333 47.5,18.5C 46.1283,19.5116 44.795,20.5116 43.5,21.5C 39.4925,17.1656 34.4925,14.9989 28.5,15C 25.9679,13.2347 23.3013,11.7347 20.5,10.5C 20.9528,9.54163 21.6195,8.7083 22.5,8C 26.8292,7.32011 30.9958,6.15345 35,4.5C 36.1667,4.66667 37.3333,4.83333 38.5,5C 41.0411,8.376 44.0411,11.2093 47.5,13.5 Z"/></g>
<g><path style="opacity:0.981" fill="#a8e6fe" d="M 19.5,10.5 C 19.8333,10.5 20.1667,10.5 20.5,10.5C 23.3013,11.7347 25.9679,13.2347 28.5,15C 34.4925,14.9989 39.4925,17.1656 43.5,21.5C 43.5,23.1667 43.5,24.8333 43.5,26.5C 39.6983,27.1197 36.365,26.2863 33.5,24C 30.5,23.3333 27.5,23.3333 24.5,24C 22.0251,26.5202 19.6918,29.0202 17.5,31.5C 15.457,32.5794 14.1237,34.246 13.5,36.5C 11.5,36.5 9.5,36.5 7.5,36.5C -0.829289,30.5122 -0.495956,25.1789 8.5,20.5C 10.4237,15.0696 14.0904,11.7363 19.5,10.5 Z"/></g>
<g><path style="opacity:0.718" fill="#70dafc" d="M 19.5,10.5 C 14.0904,11.7363 10.4237,15.0696 8.5,20.5C -0.495956,25.1789 -0.829289,30.5122 7.5,36.5C 4.28143,36.2241 1.61476,34.8907 -0.5,32.5C -0.5,29.5 -0.5,26.5 -0.5,23.5C 1.46052,21.6878 3.79385,20.6878 6.5,20.5C 8.15748,13.1275 12.4908,9.79418 19.5,10.5 Z"/></g>
<g><path style="opacity:0.943" fill="#6bd7fc" d="M 43.5,26.5 C 44.8333,27.5 46.1667,28.5 47.5,29.5C 47.5,32.5 47.5,35.5 47.5,38.5C 46.36,39.8014 45.0267,40.9681 43.5,42C 35.8406,42.4997 28.1739,42.6664 20.5,42.5C 16.2995,39.6646 15.6329,36.1646 18.5,32C 18.2716,31.6012 17.9382,31.4346 17.5,31.5C 19.6918,29.0202 22.0251,26.5202 24.5,24C 27.5,23.3333 30.5,23.3333 33.5,24C 36.365,26.2863 39.6983,27.1197 43.5,26.5 Z"/></g>
<g><path style="opacity:0.608" fill="#66affc" d="M 17.5,31.5 C 17.9382,31.4346 18.2716,31.6012 18.5,32C 15.6329,36.1646 16.2995,39.6646 20.5,42.5C 16.3065,42.6383 13.9732,40.6383 13.5,36.5C 14.1237,34.246 15.457,32.5794 17.5,31.5 Z"/></g>
</svg>
