<?xml version="1.0" standalone="no"?>
<!DOCTYPE svg PUBLIC "-//W3C//DTD SVG 20010904//EN"
 "http://www.w3.org/TR/2001/REC-SVG-20010904/DTD/svg10.dtd">
<svg version="1.0" xmlns="http://www.w3.org/2000/svg"
 width="512.000000pt" height="512.000000pt" viewBox="0 0 512.000000 512.000000"
 preserveAspectRatio="xMidYMid meet">

<g transform="translate(0.000000,512.000000) scale(0.100000,-0.100000)"
fill="#000000" stroke="none">
<path d="M1608 5099 c-51 -27 -78 -81 -78 -159 l0 -60 -60 0 c-106 0 -180 -61
-180 -150 0 -89 74 -150 180 -150 l60 0 0 -60 c0 -106 61 -180 150 -180 89 0
150 74 150 180 l0 60 60 0 c106 0 180 61 180 150 0 89 -74 150 -180 150 l-60
0 0 60 c0 80 -27 133 -80 160 -49 25 -94 25 -142 -1z"/>
<path d="M4658 5099 c-51 -27 -78 -81 -78 -159 l0 -60 -60 0 c-106 0 -180 -61
-180 -150 0 -89 74 -150 180 -150 l60 0 0 -60 c0 -106 61 -180 150 -180 89 0
150 74 150 180 l0 60 60 0 c106 0 180 61 180 150 0 89 -74 150 -180 150 l-60
0 0 60 c0 80 -27 133 -80 160 -49 25 -94 25 -142 -1z"/>
<path d="M3048 4929 c-51 -27 -78 -81 -78 -159 l0 -60 -60 0 c-106 0 -180 -61
-180 -150 0 -89 74 -150 180 -150 l60 0 0 -60 c0 -106 61 -180 150 -180 89 0
150 74 150 180 l0 60 60 0 c106 0 180 61 180 150 0 89 -74 150 -180 150 l-60
0 0 60 c0 80 -27 133 -80 160 -49 25 -94 25 -142 -1z"/>
<path d="M886 4207 c-75 -43 -98 -144 -49 -213 30 -42 614 -375 669 -381 60
-8 120 26 145 80 24 55 24 93 -4 141 -19 33 -51 56 -222 153 -470 270 -460
266 -539 220z"/>
<path d="M2406 4127 c-75 -43 -76 -48 -76 -432 l0 -340 -304 -222 c-318 -233
-336 -251 -336 -322 0 -50 35 -108 78 -130 20 -10 78 -24 127 -31 50 -7 99
-16 109 -20 15 -5 -158 -163 -910 -829 -546 -484 -947 -846 -973 -879 -109
-141 -145 -315 -101 -486 27 -107 74 -190 150 -266 204 -204 524 -225 752 -49
33 26 395 426 878 972 452 511 824 927 826 924 2 -2 13 -56 23 -119 10 -64 27
-128 37 -142 21 -34 83 -66 125 -66 71 0 89 18 322 336 l222 304 340 0 c312 0
343 2 375 19 67 35 98 127 65 192 -9 16 -94 139 -190 274 -96 134 -175 251
-175 260 0 9 45 178 101 376 114 404 114 407 50 470 -64 64 -66 64 -470 -50
-197 -56 -366 -101 -375 -101 -9 0 -126 78 -260 174 -135 96 -258 182 -275
190 -42 22 -89 20 -135 -7z m405 -548 c124 -89 179 -122 206 -126 28 -4 110
15 308 71 148 41 270 74 272 73 1 -2 -32 -124 -73 -273 -55 -196 -74 -279 -71
-307 4 -27 37 -82 126 -206 67 -94 121 -172 121 -175 0 -3 -101 -6 -225 -6
-202 0 -230 -2 -263 -19 -28 -14 -71 -65 -172 -204 -74 -102 -136 -184 -137
-183 -1 0 -20 116 -42 256 -29 181 -46 262 -59 279 -39 53 -60 60 -287 96
-121 19 -237 38 -257 42 l-37 8 186 135 c139 102 190 144 204 172 17 33 19 61
19 263 0 124 3 225 6 225 3 0 81 -54 175 -121z m-301 -1028 c34 -7 35 -9 47
-71 10 -58 9 -67 -6 -85 -10 -11 -108 -122 -218 -246 l-200 -227 -106 106
-105 105 246 218 c269 238 238 220 342 200z m-601 -880 c-10 -14 -277 -316
-591 -671 -645 -725 -613 -695 -748 -695 -87 1 -133 20 -191 82 -59 61 -73 98
-74 183 0 135 -33 101 720 768 l669 593 117 -117 118 -118 -20 -25z"/>
<path d="M4488 3489 c-51 -27 -78 -81 -78 -159 l0 -60 -60 0 c-106 0 -180 -61
-180 -150 0 -89 74 -150 180 -150 l60 0 0 -60 c0 -106 61 -180 150 -180 89 0
150 74 150 180 l0 60 60 0 c106 0 180 61 180 150 0 89 -74 150 -180 150 l-60
0 0 60 c0 80 -27 133 -80 160 -49 25 -94 25 -142 -1z"/>
<path d="M835 3386 c-350 -45 -372 -51 -406 -116 -40 -74 -10 -165 66 -202
l44 -22 348 43 c239 29 359 48 383 60 41 21 80 82 80 129 0 81 -74 153 -157
151 -21 -1 -182 -20 -358 -43z"/>
<path d="M4656 2046 c-53 -32 -75 -76 -76 -153 l0 -63 -61 0 c-139 0 -216
-108 -159 -220 27 -53 80 -80 160 -80 l60 0 0 -60 c0 -106 61 -180 150 -180
89 0 150 74 150 180 l0 60 60 0 c106 0 180 61 180 150 0 89 -74 150 -180 150
l-60 0 0 60 c0 80 -27 133 -80 160 -52 26 -96 25 -144 -4z"/>
<path d="M3688 1649 c-50 -26 -82 -87 -75 -143 6 -55 339 -639 381 -669 69
-49 170 -26 213 49 46 79 50 69 -220 539 -97 171 -120 203 -153 222 -48 28
-97 28 -146 2z"/>
<path d="M3208 1329 c-65 -33 -71 -58 -119 -444 -42 -345 -42 -350 -25 -388
38 -77 127 -107 204 -68 69 35 74 55 123 444 l43 348 -22 44 c-37 77 -127 105
-204 64z"/>
</g>
</svg>
