<?xml version="1.0" encoding="UTF-8"?>
<!DOCTYPE svg PUBLIC "-//W3C//DTD SVG 1.1//EN" "http://www.w3.org/Graphics/SVG/1.1/DTD/svg11.dtd">
<svg xmlns="http://www.w3.org/2000/svg" version="1.1" width="512px" height="512px" style="shape-rendering:geometricPrecision; text-rendering:geometricPrecision; image-rendering:optimizeQuality; fill-rule:evenodd; clip-rule:evenodd" xmlns:xlink="http://www.w3.org/1999/xlink">
<g><path style="opacity:0.998" fill="#00c3fe" d="M 90.5,-0.5 C 145.5,-0.5 200.5,-0.5 255.5,-0.5C 255.5,59.8333 255.5,120.167 255.5,180.5C 250.138,180.472 244.805,180.806 239.5,181.5C 227.293,152.705 205.626,135.872 174.5,131C 136.746,129.124 109.246,144.958 92,178.5C 79.0933,215.27 86.9267,246.77 115.5,273C 125.457,281.145 136.791,286.311 149.5,288.5C 138.075,305.438 137.575,322.771 148,340.5C 156.441,352.307 167.941,358.807 182.5,360C 206.831,360.5 231.164,360.667 255.5,360.5C 255.5,410.833 255.5,461.167 255.5,511.5C 200.5,511.5 145.5,511.5 90.5,511.5C 39.8333,501.5 9.5,471.167 -0.5,420.5C -0.5,310.5 -0.5,200.5 -0.5,90.5C 9.5,39.8333 39.8333,9.5 90.5,-0.5 Z"/></g>
<g><path style="opacity:1" fill="#00aaf0" d="M 255.5,-0.5 C 310.5,-0.5 365.5,-0.5 420.5,-0.5C 471.167,9.5 501.5,39.8333 511.5,90.5C 511.5,200.5 511.5,310.5 511.5,420.5C 501.5,471.167 471.167,501.5 420.5,511.5C 365.5,511.5 310.5,511.5 255.5,511.5C 255.5,461.167 255.5,410.833 255.5,360.5C 291.835,360.667 328.168,360.5 364.5,360C 396.268,352.564 413.268,332.564 415.5,300C 412.817,267.982 395.817,248.316 364.5,241C 354.153,239.568 344.153,240.735 334.5,244.5C 327.477,215.6 310.144,195.767 282.5,185C 273.708,182.244 264.708,180.744 255.5,180.5C 255.5,120.167 255.5,59.8333 255.5,-0.5 Z"/></g>
<g><path style="opacity:1" fill="#fee984" d="M 239.5,181.5 C 206.624,189.875 185.791,210.542 177,243.5C 175.168,252.805 175.002,262.138 176.5,271.5C 165.376,273.89 156.376,279.557 149.5,288.5C 136.791,286.311 125.457,281.145 115.5,273C 86.9267,246.77 79.0933,215.27 92,178.5C 109.246,144.958 136.746,129.124 174.5,131C 205.626,135.872 227.293,152.705 239.5,181.5 Z"/></g>
<g><path style="opacity:1" fill="#f1f1f2" d="M 255.5,180.5 C 264.708,180.744 273.708,182.244 282.5,185C 310.144,195.767 327.477,215.6 334.5,244.5C 344.153,240.735 354.153,239.568 364.5,241C 395.817,248.316 412.817,267.982 415.5,300C 413.268,332.564 396.268,352.564 364.5,360C 328.168,360.5 291.835,360.667 255.5,360.5C 255.5,300.5 255.5,240.5 255.5,180.5 Z"/></g>
<g><path style="opacity:1" fill="#fefefe" d="M 255.5,180.5 C 255.5,240.5 255.5,300.5 255.5,360.5C 231.164,360.667 206.831,360.5 182.5,360C 167.941,358.807 156.441,352.307 148,340.5C 137.575,322.771 138.075,305.438 149.5,288.5C 156.376,279.557 165.376,273.89 176.5,271.5C 175.002,262.138 175.168,252.805 177,243.5C 185.791,210.542 206.624,189.875 239.5,181.5C 244.805,180.806 250.138,180.472 255.5,180.5 Z"/></g>
</svg>
