<?xml version="1.0" encoding="UTF-8"?>
<!DOCTYPE svg PUBLIC "-//W3C//DTD SVG 1.1//EN" "http://www.w3.org/Graphics/SVG/1.1/DTD/svg11.dtd">
<svg xmlns="http://www.w3.org/2000/svg" version="1.1" width="127px" height="127px" style="shape-rendering:geometricPrecision; text-rendering:geometricPrecision; image-rendering:optimizeQuality; fill-rule:evenodd; clip-rule:evenodd" xmlns:xlink="http://www.w3.org/1999/xlink">
<g><path style="opacity:0.821" fill="#808080" d="M 74.5,2.5 C 69.5,2.5 64.5,2.5 59.5,2.5C 64.5,-0.166667 69.5,-0.166667 74.5,2.5 Z"/></g>
<g><path style="opacity:1" fill="#1e1e1f" d="M 59.5,2.5 C 64.5,2.5 69.5,2.5 74.5,2.5C 80.4898,3.4919 85.1565,6.4919 88.5,11.5C 88.427,13.0269 89.0937,14.0269 90.5,14.5C 92.0075,16.1815 93.0075,18.1815 93.5,20.5C 93.5,22.5 93.5,24.5 93.5,26.5C 95.4147,26.7845 97.0813,26.4511 98.5,25.5C 105.593,24.2523 111.926,25.919 117.5,30.5C 117.427,32.0269 118.094,33.0269 119.5,33.5C 121.942,35.1209 123.275,37.4542 123.5,40.5C 123.5,45.1667 123.5,49.8333 123.5,54.5C 120.98,62.3522 115.646,67.0189 107.5,68.5C 93.1512,68.1674 78.8179,68.5007 64.5,69.5C 64.6236,70.1067 64.9569,70.44 65.5,70.5C 66.2891,70.7828 66.9558,71.2828 67.5,72C 77.599,72.0494 87.599,72.716 97.5,74C 103.025,79.7754 102.358,84.7754 95.5,89C 77.8333,89.6667 60.1667,89.6667 42.5,89C 38.1493,86.635 35.816,82.9683 35.5,78C 25.658,77.83 15.9913,77.33 6.5,76.5C 6.02694,75.0937 5.02694,74.427 3.5,74.5C 2.66175,74.1583 2.32842,73.4916 2.5,72.5C 2.5,70.1667 2.5,67.8333 2.5,65.5C 3.83333,63.1667 3.83333,60.8333 2.5,58.5C 2.5,54.8333 2.5,51.1667 2.5,47.5C 4.35978,41.6433 8.35978,38.3099 14.5,37.5C 16.0739,35.8984 16.7406,33.8984 16.5,31.5C 18.3591,24.3125 23.0258,20.3125 30.5,19.5C 33.5176,19.7038 36.5176,20.0371 39.5,20.5C 41.6223,15.2653 44.9556,10.932 49.5,7.5C 51.0269,7.57298 52.0269,6.90632 52.5,5.5C 54.4261,3.70732 56.7594,2.70732 59.5,2.5 Z"/></g>
<g><path style="opacity:1" fill="#bfc6cf" d="M 91.5,31.5 C 87.8202,37.3603 82.8202,41.8603 76.5,45C 54.9098,54.9427 32.9098,55.9427 10.5,48C 9.61947,47.2917 8.9528,46.4584 8.5,45.5C 9.34301,43.8267 10.6763,42.66 12.5,42C 14.764,41.7638 16.9307,41.2638 19,40.5C 18.2788,30.2326 22.9455,24.5659 33,23.5C 36.5414,24.025 40.0414,24.6917 43.5,25.5C 45.3859,15.7762 51.0526,9.27616 60.5,6C 79.4438,4.11517 89.7771,12.6152 91.5,31.5 Z"/></g>
<g><path style="opacity:0.733" fill="#858585" d="M 52.5,5.5 C 52.0269,6.90632 51.0269,7.57298 49.5,7.5C 49.9731,6.09368 50.9731,5.42702 52.5,5.5 Z"/></g>
<g><path style="opacity:0.545" fill="#848484" d="M 88.5,11.5 C 89.9063,11.9731 90.573,12.9731 90.5,14.5C 89.0937,14.0269 88.427,13.0269 88.5,11.5 Z"/></g>
<g><path style="opacity:0.612" fill="#a5a5a5" d="M 30.5,19.5 C 33.6274,18.1851 36.6274,18.5185 39.5,20.5C 36.5176,20.0371 33.5176,19.7038 30.5,19.5 Z"/></g>
<g><path style="opacity:0.518" fill="#8e8e8e" d="M 93.5,20.5 C 94.4511,21.9187 94.7845,23.5853 94.5,25.5C 95.8333,25.5 97.1667,25.5 98.5,25.5C 97.0813,26.4511 95.4147,26.7845 93.5,26.5C 93.5,24.5 93.5,22.5 93.5,20.5 Z"/></g>
<g><path style="opacity:1" fill="#a5acb8" d="M 8.5,45.5 C 8.9528,46.4584 9.61947,47.2917 10.5,48C 32.9098,55.9427 54.9098,54.9427 76.5,45C 82.8202,41.8603 87.8202,37.3603 91.5,31.5C 104.174,26.1068 113.674,29.4401 120,41.5C 122.071,53.7343 117.238,61.5677 105.5,65C 91.4881,65.8328 77.4881,65.6661 63.5,64.5C 62.91,63.2011 61.91,62.3678 60.5,62C 43.1667,61.6667 25.8333,61.3333 8.5,61C 5.75957,57.2756 4.92624,53.109 6,48.5C 6.37675,47.0577 7.21009,46.0577 8.5,45.5 Z"/></g>
<g><path style="opacity:0.745" fill="#8d8d8d" d="M 117.5,30.5 C 118.906,30.9731 119.573,31.9731 119.5,33.5C 118.094,33.0269 117.427,32.0269 117.5,30.5 Z"/></g>
<g><path style="opacity:0.859" fill="#808080" d="M 16.5,31.5 C 16.7406,33.8984 16.0739,35.8984 14.5,37.5C 14.595,35.2143 15.2616,33.2143 16.5,31.5 Z"/></g>
<g><path style="opacity:0.799" fill="#808080" d="M 123.5,40.5 C 125.959,45.143 125.959,49.8096 123.5,54.5C 123.5,49.8333 123.5,45.1667 123.5,40.5 Z"/></g>
<g><path style="opacity:0.821" fill="#787878" d="M 2.5,47.5 C 2.5,51.1667 2.5,54.8333 2.5,58.5C -0.166667,54.8333 -0.166667,51.1667 2.5,47.5 Z"/></g>
<g><path style="opacity:1" fill="#838d9a" d="M 8.5,64.5 C 25.17,64.3334 41.8367,64.5001 58.5,65C 60.8696,67.2932 62.2029,70.1265 62.5,73.5C 63.5,74.3333 64.5,75.1667 65.5,76C 75.1667,76.3333 84.8333,76.6667 94.5,77C 96.3959,78.8083 96.8959,80.975 96,83.5C 78.2403,84.6584 60.407,84.825 42.5,84C 42.1664,80.013 40.4997,76.6797 37.5,74C 27.5,73.6667 17.5,73.3333 7.5,73C 4.66546,69.6955 4.99879,66.8621 8.5,64.5 Z"/></g>
<g><path style="opacity:0.839" fill="#7b7b7b" d="M 2.5,65.5 C 2.5,67.8333 2.5,70.1667 2.5,72.5C -0.166667,70.1667 -0.166667,67.8333 2.5,65.5 Z"/></g>
<g><path style="opacity:0.268" fill="#b5b5b5" d="M 107.5,68.5 C 93.5,69.1667 79.5,69.8333 65.5,70.5C 64.9569,70.44 64.6236,70.1067 64.5,69.5C 78.8179,68.5007 93.1512,68.1674 107.5,68.5 Z"/></g>
<g><path style="opacity:0.463" fill="#8d8d8d" d="M 3.5,74.5 C 5.02694,74.427 6.02694,75.0937 6.5,76.5C 4.97306,76.573 3.97306,75.9063 3.5,74.5 Z"/></g>
<g><path style="opacity:0.694" fill="#606060" d="M 34.5,97.5 C 24.4478,97.2162 14.4478,97.5496 4.5,98.5C 4.61071,97.8826 4.94404,97.3826 5.5,97C 15.3422,96.1754 25.0089,96.342 34.5,97.5 Z"/></g>
<g><path style="opacity:1" fill="#252525" d="M 34.5,97.5 C 36.0174,97.5106 37.1841,98.1772 38,99.5C 38.7982,102.543 39.9648,105.376 41.5,108C 46.5,108.333 51.5,108.667 56.5,109C 62.6071,113.558 62.9405,118.558 57.5,124C 48.2424,125.584 38.9091,125.917 29.5,125C 24.9012,122.825 22.2346,119.159 21.5,114C 15.6858,113.952 10.0192,113.119 4.5,111.5C 3.57481,110.643 2.90814,109.643 2.5,108.5C 2.5,105.833 2.5,103.167 2.5,100.5C 2.83333,99.5 3.5,98.8333 4.5,98.5C 14.4478,97.5496 24.4478,97.2162 34.5,97.5 Z"/></g>
<g><path style="opacity:1" fill="#272728" d="M 123.5,112.5 C 123.5,115.167 123.5,117.833 123.5,120.5C 122.327,122.504 120.66,124.004 118.5,125C 110.167,125.667 101.833,125.667 93.5,125C 88.407,123.163 85.7404,119.497 85.5,114C 79.7512,113.852 74.0845,113.186 68.5,112C 63.0477,106.6 63.381,101.6 69.5,97C 79.1667,96.3333 88.8333,96.3333 98.5,97C 101.862,100.067 104.195,103.734 105.5,108C 110.5,108.333 115.5,108.667 120.5,109C 121.71,110.039 122.71,111.206 123.5,112.5 Z"/></g>
<g><path style="opacity:1" fill="#868f9d" d="M 7.5,100.5 C 16.1731,100.334 24.8397,100.5 33.5,101C 34.8041,104.485 36.4707,107.819 38.5,111C 44.0555,112.239 49.7222,112.906 55.5,113C 58.1667,115.333 58.1667,117.667 55.5,120C 46.8333,120.667 38.1667,120.667 29.5,120C 28.2246,116.275 26.2246,112.942 23.5,110C 18.2793,108.768 12.9459,108.101 7.5,108C 4.91418,105.506 4.91418,103.006 7.5,100.5 Z"/></g>
<g><path style="opacity:1" fill="#868f9d" d="M 70.5,100.5 C 79.1731,100.334 87.8397,100.5 96.5,101C 98.0738,102.826 98.9071,104.993 99,107.5C 100.167,109.333 101.667,110.833 103.5,112C 108.5,112.333 113.5,112.667 118.5,113C 121.167,115.333 121.167,117.667 118.5,120C 109.833,120.667 101.167,120.667 92.5,120C 91.1959,116.515 89.5293,113.181 87.5,110C 81.9445,108.761 76.2778,108.094 70.5,108C 68.1116,105.597 68.1116,103.097 70.5,100.5 Z"/></g>
<g><path style="opacity:0.822" fill="#7d7d7d" d="M 2.5,100.5 C 2.5,103.167 2.5,105.833 2.5,108.5C -0.166667,105.833 -0.166667,103.167 2.5,100.5 Z"/></g>
<g><path style="opacity:0.822" fill="#7f7f80" d="M 123.5,112.5 C 126.167,115.167 126.167,117.833 123.5,120.5C 123.5,117.833 123.5,115.167 123.5,112.5 Z"/></g>
</svg>
