<?xml version="1.0" encoding="UTF-8"?>
<!DOCTYPE svg PUBLIC "-//W3C//DTD SVG 1.1//EN" "http://www.w3.org/Graphics/SVG/1.1/DTD/svg11.dtd">
<svg xmlns="http://www.w3.org/2000/svg" version="1.1" width="48px" height="48px" style="shape-rendering:geometricPrecision; text-rendering:geometricPrecision; image-rendering:optimizeQuality; fill-rule:evenodd; clip-rule:evenodd" xmlns:xlink="http://www.w3.org/1999/xlink">
<g><path style="opacity:0.987" fill="#50a0de" d="M 16.5,-0.5 C 19.5,-0.5 22.5,-0.5 25.5,-0.5C 27.5547,1.55492 29.2213,3.88825 30.5,6.5C 29.8333,6.83333 29.1667,7.16667 28.5,7.5C 27.209,7.26269 26.209,7.59603 25.5,8.5C 25.1667,8.5 24.8333,8.5 24.5,8.5C 21.126,6.12612 18.4593,3.12612 16.5,-0.5 Z"/></g>
<g><path style="opacity:0.892" fill="#4293d1" d="M 14.5,-0.5 C 15.1667,-0.5 15.8333,-0.5 16.5,-0.5C 18.4593,3.12612 21.126,6.12612 24.5,8.5C 22.7706,9.23621 21.7706,10.5695 21.5,12.5C 20.2209,13.968 18.5542,14.6347 16.5,14.5C 14.1667,11.8333 11.8333,9.16667 9.5,6.5C 10.0435,3.30045 11.7102,0.967116 14.5,-0.5 Z"/></g>
<g><path style="opacity:0.998" fill="#b9daf4" d="M 30.5,6.5 C 36.6154,7.11017 40.4488,10.4435 42,16.5C 43.9917,17.6647 45.825,18.998 47.5,20.5C 47.5,22.5 47.5,24.5 47.5,26.5C 40.8814,20.5481 34.5481,14.2147 28.5,7.5C 29.1667,7.16667 29.8333,6.83333 30.5,6.5 Z"/></g>
<g><path style="opacity:0.996" fill="#b1d6f3" d="M 28.5,7.5 C 34.5481,14.2147 40.8814,20.5481 47.5,26.5C 47.5,27.5 47.5,28.5 47.5,29.5C 47.1667,29.5 46.8333,29.5 46.5,29.5C 45.7611,29.631 45.0944,29.4643 44.5,29C 37.5716,22.5772 31.2383,15.7438 25.5,8.5C 26.209,7.59603 27.209,7.26269 28.5,7.5 Z"/></g>
<g><path style="opacity:0.927" fill="#2f82c1" d="M 9.5,6.5 C 11.8333,9.16667 14.1667,11.8333 16.5,14.5C 15.8333,14.5 15.5,14.8333 15.5,15.5C 13.9731,15.427 12.9731,16.0937 12.5,17.5C 11.0818,20.0204 10.0818,22.6871 9.5,25.5C 9.66212,23.4727 9.49546,21.4727 9,19.5C 6.2972,16.6286 3.46387,13.9619 0.5,11.5C 2.07268,7.54133 5.07268,5.87466 9.5,6.5 Z"/></g>
<g><path style="opacity:0.977" fill="#a6d0f1" d="M 24.5,8.5 C 24.8333,8.5 25.1667,8.5 25.5,8.5C 31.2383,15.7438 37.5716,22.5772 44.5,29C 45.0944,29.4643 45.7611,29.631 46.5,29.5C 45.7377,31.2624 44.4044,32.2624 42.5,32.5C 34.8416,26.5079 27.8416,19.8412 21.5,12.5C 21.7706,10.5695 22.7706,9.23621 24.5,8.5 Z"/></g>
<g><path style="opacity:0.944" fill="#99caef" d="M 21.5,12.5 C 27.8416,19.8412 34.8416,26.5079 42.5,32.5C 39.7131,33.4767 36.7131,33.81 33.5,33.5C 27.8063,27.1396 21.8063,21.1396 15.5,15.5C 15.5,14.8333 15.8333,14.5 16.5,14.5C 18.5542,14.6347 20.2209,13.968 21.5,12.5 Z"/></g>
<g><path style="opacity:0.85" fill="#1f74b4" d="M -0.5,11.5 C -0.166667,11.5 0.166667,11.5 0.5,11.5C 3.46387,13.9619 6.2972,16.6286 9,19.5C 9.49546,21.4727 9.66212,23.4727 9.5,25.5C 5.01676,25.9253 1.68343,24.2587 -0.5,20.5C -0.5,17.5 -0.5,14.5 -0.5,11.5 Z"/></g>
<g><path style="opacity:0.917" fill="#90c5ee" d="M 15.5,15.5 C 21.8063,21.1396 27.8063,27.1396 33.5,33.5C 30.8333,33.5 28.1667,33.5 25.5,33.5C 21.1667,28.1667 16.8333,22.8333 12.5,17.5C 12.9731,16.0937 13.9731,15.427 15.5,15.5 Z"/></g>
<g><path style="opacity:0.921" fill="#82bdec" d="M 12.5,17.5 C 16.8333,22.8333 21.1667,28.1667 25.5,33.5C 19.9989,34.3605 15.1655,33.0271 11,29.5C 10.2086,28.255 9.70858,26.9217 9.5,25.5C 10.0818,22.6871 11.0818,20.0204 12.5,17.5 Z"/></g>
<g><path style="opacity:0.6" fill="#a6d0f1" d="M 8.5,35.5 C 7.16667,34.5 5.83333,33.5 4.5,32.5C 6.71993,27.0883 8.71993,27.2549 10.5,33C 10.3613,34.301 9.69459,35.1344 8.5,35.5 Z"/></g>
<g><path style="opacity:0.478" fill="#7dbbeb" d="M 4.5,32.5 C 5.83333,33.5 7.16667,34.5 8.5,35.5C 5.67025,37.0348 4.33691,36.0348 4.5,32.5 Z"/></g>
<g><path style="opacity:0.267" fill="#b4d8f4" d="M 13.5,34.5 C 14.5,34.5 15.5,34.5 16.5,34.5C 16.7678,36.099 16.4345,37.4324 15.5,38.5C 14.8333,37.1667 14.1667,35.8333 13.5,34.5 Z"/></g>
<g><path style="opacity:0.463" fill="#b2d7f3" d="M 33.5,38.5 C 32.1667,37.8333 31.1667,36.8333 30.5,35.5C 31.3864,34.2241 32.3864,34.2241 33.5,35.5C 34.7914,36.5272 34.7914,37.5272 33.5,38.5 Z"/></g>
<g><path style="opacity:0.463" fill="#b2d7f3" d="M 42.5,38.5 C 41.1667,37.8333 40.1667,36.8333 39.5,35.5C 40.3864,34.2241 41.3864,34.2241 42.5,35.5C 43.7914,36.5272 43.7914,37.5272 42.5,38.5 Z"/></g>
<g><path style="opacity:1" fill="#a5d0f1" d="M 25.5,40.5 C 24.1283,39.4884 22.795,38.4884 21.5,37.5C 21.7218,34.9236 23.0551,34.0902 25.5,35C 26.807,36.9435 26.807,38.7768 25.5,40.5 Z"/></g>
<g><path style="opacity:0.663" fill="#82beec" d="M 30.5,35.5 C 31.1667,36.8333 32.1667,37.8333 33.5,38.5C 32.7494,39.5735 31.7494,39.7401 30.5,39C 29.2089,37.7083 29.2089,36.5417 30.5,35.5 Z"/></g>
<g><path style="opacity:0.663" fill="#82beec" d="M 39.5,35.5 C 40.1667,36.8333 41.1667,37.8333 42.5,38.5C 41.7494,39.5735 40.7494,39.7401 39.5,39C 38.2089,37.7083 38.2089,36.5417 39.5,35.5 Z"/></g>
<g><path style="opacity:0.067" fill="#8bc2ed" d="M 13.5,34.5 C 14.1667,35.8333 14.8333,37.1667 15.5,38.5C 14.8106,39.7736 13.9772,39.7736 13,38.5C 12.235,36.9343 12.4017,35.6009 13.5,34.5 Z"/></g>
<g><path style="opacity:0.516" fill="#7ebceb" d="M 21.5,37.5 C 22.795,38.4884 24.1283,39.4884 25.5,40.5C 24.2918,41.782 22.9584,41.782 21.5,40.5C 20.3473,39.3132 20.3473,38.3132 21.5,37.5 Z"/></g>
<g><path style="opacity:0.075" fill="#b2d6f3" d="M 11.5,42.5 C 10.5,41.8333 9.5,41.1667 8.5,40.5C 10.013,37.9869 11.3464,38.3202 12.5,41.5C 12.3764,42.1067 12.0431,42.44 11.5,42.5 Z"/></g>
<g><path style="opacity:0.773" fill="#88c1ed" d="M 8.5,40.5 C 9.5,41.1667 10.5,41.8333 11.5,42.5C 10.7494,43.5735 9.74943,43.7401 8.5,43C 7.22641,42.0228 7.22641,41.1894 8.5,40.5 Z"/></g>
<g><path style="opacity:0.106" fill="#b1d6f3" d="M 38.5,44.5 C 36.8333,43.5 35.5,42.1667 34.5,40.5C 34.8425,38.7748 35.8425,38.2748 37.5,39C 39.2912,40.7897 39.6246,42.623 38.5,44.5 Z"/></g>
<g><path style="opacity:0.027" fill="#b1d6f3" d="M 20.5,47.5 C 20.1667,47.5 19.8333,47.5 19.5,47.5C 18.2485,45.9991 17.2485,44.3325 16.5,42.5C 17.2545,40.5337 18.4212,40.2004 20,41.5C 21.6117,43.4558 21.7784,45.4558 20.5,47.5 Z"/></g>
<g><path style="opacity:0.361" fill="#86bfec" d="M 34.5,40.5 C 35.5,42.1667 36.8333,43.5 38.5,44.5C 37.3647,46.0878 36.0314,46.4212 34.5,45.5C 33.2121,43.7015 33.2121,42.0348 34.5,40.5 Z"/></g>
<g><path style="opacity:0.624" fill="#85bfed" d="M 16.5,42.5 C 17.2485,44.3325 18.2485,45.9991 19.5,47.5C 18.1667,47.5 16.8333,47.5 15.5,47.5C 15.2155,45.5853 15.5489,43.9187 16.5,42.5 Z"/></g>
<g><path style="opacity:0.227" fill="#a1cef1" d="M 31.5,47.5 C 30.1667,47.5 28.8333,47.5 27.5,47.5C 27.5,46.1667 27.5,44.8333 27.5,43.5C 28.8333,43.5 30.1667,43.5 31.5,43.5C 31.5,44.8333 31.5,46.1667 31.5,47.5 Z"/></g>
</svg>
