<?xml version="1.0" encoding="UTF-8"?>
<!DOCTYPE svg PUBLIC "-//W3C//DTD SVG 1.1//EN" "http://www.w3.org/Graphics/SVG/1.1/DTD/svg11.dtd">
<svg xmlns="http://www.w3.org/2000/svg" version="1.1" width="512px" height="512px" style="shape-rendering:geometricPrecision; text-rendering:geometricPrecision; image-rendering:optimizeQuality; fill-rule:evenodd; clip-rule:evenodd" xmlns:xlink="http://www.w3.org/1999/xlink">
<g><path style="opacity:1" fill="#8fcbf6" d="M 284.5,15.5 C 277.158,27.0181 272.658,39.6848 271,53.5C 270.831,60.1915 270.331,66.8581 269.5,73.5C 232.636,67.6808 207.136,82.0141 193,116.5C 191.892,120.086 191.392,123.753 191.5,127.5C 156.966,129.197 135.466,146.864 127,180.5C 124.354,220.169 142.187,245.003 180.5,255C 280.166,255.5 379.833,255.667 479.5,255.5C 464.134,273.021 444.801,283.521 421.5,287C 299.465,287.991 177.465,287.657 55.5,286C 19.8792,273.95 4.0459,249.117 8,211.5C 16.3227,178.429 37.4893,161.095 71.5,159.5C 75.9782,131.188 91.9782,113.022 119.5,105C 130.155,103.362 140.821,103.029 151.5,104C 149.479,73.0586 159.812,47.0586 182.5,26C 196.813,15.6713 212.813,9.67132 230.5,8C 245.693,6.60903 260.693,7.60903 275.5,11C 278.823,12.0399 281.823,13.5399 284.5,15.5 Z"/></g>
<g><path style="opacity:0.998" fill="#d7ebf1" d="M 284.5,15.5 C 288.441,17.1396 292.108,19.3063 295.5,22C 303.67,29.8369 311.503,38.0035 319,46.5C 334.637,40.4858 350.471,39.9858 366.5,45C 387.127,55.3803 398.461,72.2137 400.5,95.5C 444.494,94.3618 476.327,113.362 496,152.5C 506,178.5 506,204.5 496,230.5C 491.815,239.823 486.315,248.156 479.5,255.5C 379.833,255.667 280.166,255.5 180.5,255C 142.187,245.003 124.354,220.169 127,180.5C 135.466,146.864 156.966,129.197 191.5,127.5C 191.392,123.753 191.892,120.086 193,116.5C 207.136,82.0141 232.636,67.6808 269.5,73.5C 270.331,66.8581 270.831,60.1915 271,53.5C 272.658,39.6848 277.158,27.0181 284.5,15.5 Z"/></g>
<g><path style="opacity:0.975" fill="#8fcbf7" d="M 325.5,311.5 C 328.518,311.335 331.518,311.502 334.5,312C 337.349,315.016 340.349,317.85 343.5,320.5C 346.686,317.479 350.02,314.646 353.5,312C 362.667,310.5 366.5,314.333 365,323.5C 361,327.5 357,331.5 353,335.5C 352.179,338.554 352.345,341.554 353.5,344.5C 357.652,340.849 361.652,337.016 365.5,333C 376.667,330.167 380.833,334.333 378,345.5C 374.333,349.167 370.667,352.833 367,356.5C 366.517,357.448 366.351,358.448 366.5,359.5C 369.187,359.664 371.854,359.497 374.5,359C 378.833,354.667 383.167,350.333 387.5,346C 397.167,344.67 401.001,348.836 399,358.5C 395.984,361.349 393.15,364.349 390.5,367.5C 393.521,370.686 396.354,374.02 399,377.5C 400.5,386.667 396.667,390.5 387.5,389C 383.167,384.667 378.833,380.333 374.5,376C 371.854,375.503 369.187,375.336 366.5,375.5C 366.351,376.552 366.517,377.552 367,378.5C 370.667,382.167 374.333,385.833 378,389.5C 380.833,400.667 376.667,404.833 365.5,402C 361.833,398.333 358.167,394.667 354.5,391C 353.552,390.517 352.552,390.351 351.5,390.5C 351.336,393.187 351.503,395.854 352,398.5C 356.333,402.833 360.667,407.167 365,411.5C 366.088,422.073 361.588,425.573 351.5,422C 348.984,419.317 346.317,416.817 343.5,414.5C 340.349,417.15 337.349,419.984 334.5,423C 324.836,425.001 320.67,421.167 322,411.5C 326.333,407.167 330.667,402.833 335,398.5C 335.497,395.854 335.664,393.187 335.5,390.5C 334.448,390.351 333.448,390.517 332.5,391C 328.833,394.667 325.167,398.333 321.5,402C 310.333,404.833 306.167,400.667 309,389.5C 312.667,385.833 316.333,382.167 320,378.5C 320.483,377.552 320.649,376.552 320.5,375.5C 317.813,375.336 315.146,375.503 312.5,376C 308.167,380.333 303.833,384.667 299.5,389C 289.833,390.33 285.999,386.164 288,376.5C 291.016,373.651 293.85,370.651 296.5,367.5C 293.85,364.349 291.016,361.349 288,358.5C 285.999,348.836 289.833,344.67 299.5,346C 303.833,350.333 308.167,354.667 312.5,359C 315.146,359.497 317.813,359.664 320.5,359.5C 320.649,358.448 320.483,357.448 320,356.5C 316.333,352.833 312.667,349.167 309,345.5C 306.167,334.333 310.333,330.167 321.5,333C 325.167,336.667 328.833,340.333 332.5,344C 333.448,344.483 334.448,344.649 335.5,344.5C 335.664,341.813 335.497,339.146 335,336.5C 330.667,332.167 326.333,327.833 322,323.5C 320.593,318.643 321.76,314.643 325.5,311.5 Z M 340.5,360.5 C 349.85,360.365 352.517,364.532 348.5,373C 339.956,376.322 336.123,373.489 337,364.5C 337.69,362.65 338.856,361.316 340.5,360.5 Z"/></g>
<g><path style="opacity:0.924" fill="#3382f1" d="M 139.5,319.5 C 150.86,318.71 154.193,323.543 149.5,334C 138.964,337.997 134.464,334.497 136,323.5C 136.69,321.65 137.856,320.316 139.5,319.5 Z"/></g>
<g><path style="opacity:0.924" fill="#3382f1" d="M 395.5,319.5 C 406.86,318.71 410.193,323.543 405.5,334C 394.964,337.997 390.464,334.497 392,323.5C 392.69,321.65 393.856,320.316 395.5,319.5 Z"/></g>
<g><path style="opacity:0.965" fill="#8fcbf7" d="M 76.5,333.5 C 93.5915,335.685 98.7582,344.685 92,360.5C 84.4072,367.69 76.2406,368.357 67.5,362.5C 61.9035,355.79 61.0702,348.456 65,340.5C 68.2251,336.979 72.0584,334.646 76.5,333.5 Z"/></g>
<g><path style="opacity:0.969" fill="#3482f1" d="M 447.5,335.5 C 466.013,333.374 476.68,341.374 479.5,359.5C 478.17,374.83 469.837,383.163 454.5,384.5C 434.411,380.997 426.911,369.33 432,349.5C 435.492,342.834 440.659,338.168 447.5,335.5 Z"/></g>
<g><path style="opacity:0.924" fill="#3382f1" d="M 19.5,343.5 C 30.8598,342.71 34.1931,347.543 29.5,358C 18.9641,361.997 14.4641,358.497 16,347.5C 16.6897,345.65 17.8564,344.316 19.5,343.5 Z"/></g>
<g><path style="opacity:0.924" fill="#3382f1" d="M 219.5,359.5 C 230.86,358.71 234.193,363.543 229.5,374C 218.964,377.997 214.464,374.497 216,363.5C 216.69,361.65 217.856,360.316 219.5,359.5 Z"/></g>
<g><path style="opacity:0.975" fill="#8fcbf7" d="M 133.5,375.5 C 136.518,375.335 139.518,375.502 142.5,376C 145.349,379.016 148.349,381.85 151.5,384.5C 154.686,381.479 158.02,378.646 161.5,376C 170.667,374.5 174.5,378.333 173,387.5C 169,391.5 165,395.5 161,399.5C 160.179,402.554 160.345,405.554 161.5,408.5C 165.652,404.849 169.652,401.016 173.5,397C 184.667,394.167 188.833,398.333 186,409.5C 182.333,413.167 178.667,416.833 175,420.5C 174.517,421.448 174.351,422.448 174.5,423.5C 177.187,423.664 179.854,423.497 182.5,423C 186.833,418.667 191.167,414.333 195.5,410C 205.167,408.67 209.001,412.836 207,422.5C 203.984,425.349 201.15,428.349 198.5,431.5C 201.521,434.686 204.354,438.02 207,441.5C 208.5,450.667 204.667,454.5 195.5,453C 191.167,448.667 186.833,444.333 182.5,440C 179.854,439.503 177.187,439.336 174.5,439.5C 174.351,440.552 174.517,441.552 175,442.5C 178.667,446.167 182.333,449.833 186,453.5C 188.833,464.667 184.667,468.833 173.5,466C 169.833,462.333 166.167,458.667 162.5,455C 161.552,454.517 160.552,454.351 159.5,454.5C 159.336,457.187 159.503,459.854 160,462.5C 164.333,466.833 168.667,471.167 173,475.5C 174.5,484.667 170.667,488.5 161.5,487C 158.02,484.354 154.686,481.521 151.5,478.5C 148.349,481.15 145.349,483.984 142.5,487C 132.836,489.001 128.67,485.167 130,475.5C 134,471.5 138,467.5 142,463.5C 142.821,460.446 142.655,457.446 141.5,454.5C 137.348,458.151 133.348,461.984 129.5,466C 118.333,468.833 114.167,464.667 117,453.5C 120.667,449.833 124.333,446.167 128,442.5C 128.483,441.552 128.649,440.552 128.5,439.5C 125.813,439.336 123.146,439.503 120.5,440C 116.167,444.333 111.833,448.667 107.5,453C 97.8328,454.33 93.9995,450.164 96,440.5C 99.0162,437.651 101.85,434.651 104.5,431.5C 101.85,428.349 99.0162,425.349 96,422.5C 93.9995,412.836 97.8328,408.67 107.5,410C 111.833,414.333 116.167,418.667 120.5,423C 123.146,423.497 125.813,423.664 128.5,423.5C 128.649,422.448 128.483,421.448 128,420.5C 124.333,416.833 120.667,413.167 117,409.5C 114.167,398.333 118.333,394.167 129.5,397C 133.167,400.667 136.833,404.333 140.5,408C 141.448,408.483 142.448,408.649 143.5,408.5C 143.664,405.813 143.497,403.146 143,400.5C 138.667,396.167 134.333,391.833 130,387.5C 128.593,382.643 129.76,378.643 133.5,375.5 Z M 148.5,424.5 C 157.85,424.365 160.517,428.532 156.5,437C 147.956,440.322 144.123,437.489 145,428.5C 145.69,426.65 146.856,425.316 148.5,424.5 Z"/></g>
<g><path style="opacity:0.969" fill="#3482f1" d="M 31.5,407.5 C 50.0132,405.374 60.6799,413.374 63.5,431.5C 62.1704,446.83 53.8371,455.163 38.5,456.5C 18.4106,452.997 10.9106,441.33 16,421.5C 19.4922,414.834 24.6589,410.168 31.5,407.5 Z"/></g>
<g><path style="opacity:0.977" fill="#8fcbf7" d="M 255.5,407.5 C 274.013,405.374 284.68,413.374 287.5,431.5C 286.17,446.83 277.837,455.163 262.5,456.5C 242.411,452.997 234.911,441.33 240,421.5C 243.492,414.834 248.659,410.168 255.5,407.5 Z"/></g>
<g><path style="opacity:0.955" fill="#8ecbf7" d="M 435.5,431.5 C 446.86,430.71 450.193,435.543 445.5,446C 434.964,449.997 430.464,446.497 432,435.5C 432.69,433.65 433.856,432.316 435.5,431.5 Z"/></g>
<g><path style="opacity:0.969" fill="#8fcbf7" d="M 368.5,447.5 C 387.778,446.61 394.278,455.276 388,473.5C 381.055,480.069 373.222,481.236 364.5,477C 357.137,470.058 355.97,462.225 361,453.5C 363.114,450.879 365.614,448.879 368.5,447.5 Z"/></g>
<g><path style="opacity:0.924" fill="#3382f1" d="M 307.5,471.5 C 318.86,470.71 322.193,475.543 317.5,486C 306.964,489.997 302.464,486.497 304,475.5C 304.69,473.65 305.856,472.316 307.5,471.5 Z"/></g>
<g><path style="opacity:0.955" fill="#8ecbf7" d="M 75.5,479.5 C 86.8598,478.71 90.1931,483.543 85.5,494C 74.9641,497.997 70.4641,494.497 72,483.5C 72.6897,481.65 73.8564,480.316 75.5,479.5 Z"/></g>
</svg>
