<?xml version="1.0" encoding="UTF-8"?>
<!DOCTYPE svg PUBLIC "-//W3C//DTD SVG 1.1//EN" "http://www.w3.org/Graphics/SVG/1.1/DTD/svg11.dtd">
<svg xmlns="http://www.w3.org/2000/svg" version="1.1" width="48px" height="48px" style="shape-rendering:geometricPrecision; text-rendering:geometricPrecision; image-rendering:optimizeQuality; fill-rule:evenodd; clip-rule:evenodd" xmlns:xlink="http://www.w3.org/1999/xlink">
<g><path style="opacity:0.309" fill="#fea400" d="M 14.5,2.5 C 17.423,3.16345 18.0897,4.83012 16.5,7.5C 14.7826,6.33152 14.1159,4.66485 14.5,2.5 Z"/></g>
<g><path style="opacity:0.31" fill="#fea400" d="M 30.5,2.5 C 33.0628,3.99794 33.0628,5.66461 30.5,7.5C 29.3336,5.83268 29.3336,4.16602 30.5,2.5 Z"/></g>
<g><path style="opacity:0.273" fill="#ffc300" d="M 21.5,-0.5 C 22.8333,-0.5 24.1667,-0.5 25.5,-0.5C 25.5,1.83333 25.5,4.16667 25.5,6.5C 24.1667,6.5 22.8333,6.5 21.5,6.5C 21.5,4.16667 21.5,1.83333 21.5,-0.5 Z"/></g>
<g><path style="opacity:0.523" fill="#ffd400" d="M 6.5,5.5 C 7.12167,6.62656 7.95501,7.62656 9,8.5C 9.74012,9.74943 9.57346,10.7494 8.5,11.5C 5.65109,10.0804 4.98442,8.08041 6.5,5.5 Z"/></g>
<g><path style="opacity:0.198" fill="#ffbc00" d="M 6.5,5.5 C 10.791,5.93033 12.4576,8.09699 11.5,12C 10.2506,12.7401 9.25057,12.5735 8.5,11.5C 9.57346,10.7494 9.74012,9.74943 9,8.5C 7.95501,7.62656 7.12167,6.62656 6.5,5.5 Z"/></g>
<g><path style="opacity:0.552" fill="#ffd700" d="M 37.5,6.5 C 38.3491,8.51008 37.6824,10.1767 35.5,11.5C 34.1416,9.25721 34.8083,7.59054 37.5,6.5 Z"/></g>
<g><path style="opacity:0.936" fill="#ffd800" d="M 23.5,8.5 C 36.6314,14.1518 38.9647,22.8185 30.5,34.5C 28.0956,35.8432 25.7623,37.1766 23.5,38.5C 14.1734,37.84 9.17337,32.84 8.5,23.5C 9.17337,14.16 14.1734,9.15996 23.5,8.5 Z"/></g>
<g><path style="opacity:0.69" fill="#ffbc00" d="M 37.5,6.5 C 38.5676,5.56552 39.901,5.23219 41.5,5.5C 41.9193,8.32454 40.9193,10.4912 38.5,12C 37.2506,12.7401 36.2506,12.5735 35.5,11.5C 37.6824,10.1767 38.3491,8.51008 37.5,6.5 Z"/></g>
<g><path style="opacity:0.31" fill="#fea400" d="M 2.5,14.5 C 4.66485,14.1159 6.33152,14.7826 7.5,16.5C 4.83012,18.0897 3.16345,17.423 2.5,14.5 Z"/></g>
<g><path style="opacity:0.309" fill="#fea400" d="M 40.5,14.5 C 45.2761,14.6708 45.6095,15.6708 41.5,17.5C 39.1966,17.1237 38.8632,16.1237 40.5,14.5 Z"/></g>
<g><path style="opacity:0.946" fill="#ffbd00" d="M 23.5,8.5 C 32.8266,9.15996 37.8266,14.16 38.5,23.5C 37.8266,32.84 32.8266,37.84 23.5,38.5C 25.7623,37.1766 28.0956,35.8432 30.5,34.5C 38.9647,22.8185 36.6314,14.1518 23.5,8.5 Z"/></g>
<g><path style="opacity:0.757" fill="#ffd600" d="M -0.5,21.5 C 0.833333,21.5 2.16667,21.5 3.5,21.5C 3.5,22.8333 3.5,24.1667 3.5,25.5C 2.16667,25.5 0.833333,25.5 -0.5,25.5C -0.5,24.1667 -0.5,22.8333 -0.5,21.5 Z"/></g>
<g><path style="opacity:0.474" fill="#ffbc00" d="M 3.5,21.5 C 4.5,21.5 5.5,21.5 6.5,21.5C 6.5,22.8333 6.5,24.1667 6.5,25.5C 5.5,25.5 4.5,25.5 3.5,25.5C 3.5,24.1667 3.5,22.8333 3.5,21.5 Z"/></g>
<g><path style="opacity:0.612" fill="#ffd700" d="M 44.5,21.5 C 45.8333,22.8333 45.8333,24.1667 44.5,25.5C 43.1667,25.5 41.8333,25.5 40.5,25.5C 40.5,24.1667 40.5,22.8333 40.5,21.5C 41.8333,21.5 43.1667,21.5 44.5,21.5 Z"/></g>
<g><path style="opacity:0.823" fill="#ffbc00" d="M 44.5,21.5 C 45.5,21.5 46.5,21.5 47.5,21.5C 47.5,22.8333 47.5,24.1667 47.5,25.5C 46.5,25.5 45.5,25.5 44.5,25.5C 45.8333,24.1667 45.8333,22.8333 44.5,21.5 Z"/></g>
<g><path style="opacity:0.31" fill="#fea400" d="M 3.5,29.5 C 8.27615,29.6708 8.60948,30.6708 4.5,32.5C 2.19656,32.1237 1.86322,31.1237 3.5,29.5 Z"/></g>
<g><path style="opacity:0.309" fill="#fea400" d="M 39.5,29.5 C 41.6648,29.1159 43.3315,29.7826 44.5,31.5C 41.8301,33.0897 40.1634,32.423 39.5,29.5 Z"/></g>
<g><path style="opacity:0.523" fill="#ffd400" d="M 8.5,35.5 C 9.09674,35.7352 9.43007,36.2352 9.5,37C 8.68539,38.6434 7.68539,40.1434 6.5,41.5C 4.98442,38.9196 5.65109,36.9196 8.5,35.5 Z"/></g>
<g><path style="opacity:0.552" fill="#ffd600" d="M 35.5,35.5 C 38.1917,36.5905 38.8584,38.2572 37.5,40.5C 34.8083,39.4095 34.1416,37.7428 35.5,35.5 Z"/></g>
<g><path style="opacity:0.845" fill="#ffbc00" d="M 8.5,35.5 C 10.3773,34.0716 11.7106,34.5716 12.5,37C 11.4799,39.8585 9.47995,41.3585 6.5,41.5C 7.68539,40.1434 8.68539,38.6434 9.5,37C 9.43007,36.2352 9.09674,35.7352 8.5,35.5 Z"/></g>
<g><path style="opacity:0.498" fill="#ffbc00" d="M 35.5,35.5 C 37.7569,34.1974 39.5902,34.864 41,37.5C 41.49,38.7932 41.6567,40.1266 41.5,41.5C 39.901,41.7678 38.5676,41.4345 37.5,40.5C 38.8584,38.2572 38.1917,36.5905 35.5,35.5 Z"/></g>
<g><path style="opacity:0.309" fill="#fea400" d="M 15.5,39.5 C 18.0628,40.9979 18.0628,42.6646 15.5,44.5C 14.3336,42.8327 14.3336,41.166 15.5,39.5 Z"/></g>
<g><path style="opacity:0.309" fill="#fea400" d="M 29.5,39.5 C 32.423,40.1634 33.0897,41.8301 31.5,44.5C 29.7826,43.3315 29.1159,41.6648 29.5,39.5 Z"/></g>
<g><path style="opacity:0.823" fill="#ffc200" d="M 25.5,47.5 C 24.1667,47.5 22.8333,47.5 21.5,47.5C 21.5,45.1667 21.5,42.8333 21.5,40.5C 22.8333,40.5 24.1667,40.5 25.5,40.5C 25.5,42.8333 25.5,45.1667 25.5,47.5 Z"/></g>
</svg>
